<?xml version="1.0" encoding="UTF-8" standalone="no"?>
<!-- Created with Inkscape (http://www.inkscape.org/) -->

<svg
   width="512"
   height="512"
   viewBox="0 0 135.46667 135.46666"
   version="1.1"
   id="svg5"
   inkscape:version="1.2.2 (b0a8486541, 2022-12-01)"
   sodipodi:docname="icon-light.svg"
   inkscape:export-filename="icon-light.png"
   inkscape:export-xdpi="411.5845"
   inkscape:export-ydpi="411.5845"
   xml:space="preserve"
   xmlns:inkscape="http://www.inkscape.org/namespaces/inkscape"
   xmlns:sodipodi="http://sodipodi.sourceforge.net/DTD/sodipodi-0.dtd"
   xmlns="http://www.w3.org/2000/svg"
   xmlns:svg="http://www.w3.org/2000/svg"><sodipodi:namedview
     id="namedview7"
     pagecolor="#ffffff"
     bordercolor="#666666"
     borderopacity="1.0"
     inkscape:pageshadow="2"
     inkscape:pageopacity="0.0"
     inkscape:pagecheckerboard="0"
     inkscape:document-units="mm"
     showgrid="false"
     inkscape:zoom="1.2810466"
     inkscape:cx="275.94625"
     inkscape:cy="352.83651"
     inkscape:window-width="2560"
     inkscape:window-height="1371"
     inkscape:window-x="0"
     inkscape:window-y="0"
     inkscape:window-maximized="1"
     inkscape:current-layer="g1992"
     fit-margin-top="0"
     fit-margin-left="0"
     fit-margin-right="0"
     fit-margin-bottom="0"
     inkscape:showpageshadow="0"
     inkscape:deskcolor="#d1d1d1" /><defs
     id="defs2"><rect
       x="270.11673"
       y="557.60986"
       width="259.68417"
       height="53.48452"
       id="rect6069" /></defs><g
     inkscape:label="Layer 1"
     inkscape:groupmode="layer"
     id="layer1"
     transform="translate(-57.623696,-146.39098)"><g
       id="g1992"
       transform="translate(1.8914873)"><g
         id="g1074"
         transform="matrix(8.4666672,0,0,8.4666672,-416.13385,-1093.0527)"><circle
           style="opacity:1;fill:#ffffff;fill-opacity:1;stroke-width:0.169161;stop-color:#000000"
           id="path463"
           cx="63.732208"
           cy="154.39098"
           r="7.9999995" /><text
           xml:space="preserve"
           transform="matrix(0.22512655,0,0,0.22512655,16.15377,23.477782)"
           id="text6067"
           style="font-style:normal;font-weight:normal;font-size:40px;line-height:1.25;font-family:sans-serif;white-space:pre;shape-inside:url(#rect6069);display:inline;fill:#000000;fill-opacity:1;stroke:none" /><g
           id="g703"
           transform="matrix(1.0241441,0,0,1.0241441,-3.1102171,-3.6797781)"><path
             d="m 64.477618,151.97724 h 1.578006 v 0.78901 h -1.578006 z m -0.197251,-0.789 c -0.326697,0 -0.591752,0.26506 -0.591752,0.59176 v 1.1835 c 0,0.32669 0.265055,0.59175 0.591752,0.59175 h 0.591753 v 0.3945 h -3.156012 c -0.218208,0 -0.394502,0.17629 -0.394502,0.39451 0,0.21821 0.176294,0.3945 0.394502,0.3945 h 1.183504 v 0.3945 H 62.30786 c -0.326697,0 -0.591752,0.26506 -0.591752,0.59175 v 1.1835 c 0,0.3267 0.265055,0.59176 0.591752,0.59176 h 1.972507 c 0.326697,0 0.591753,-0.26506 0.591753,-0.59176 v -1.1835 c 0,-0.32669 -0.265056,-0.59175 -0.591753,-0.59175 h -0.591752 v -0.3945 h 3.156012 v 0.3945 h -0.591752 c -0.326697,0 -0.591753,0.26506 -0.591753,0.59175 v 1.1835 c 0,0.3267 0.265056,0.59176 0.591753,0.59176 h 1.972507 c 0.326696,0 0.591752,-0.26506 0.591752,-0.59176 v -1.1835 c 0,-0.32669 -0.265056,-0.59175 -0.591752,-0.59175 H 67.63363 v -0.3945 h 1.183504 c 0.218208,0 0.394502,-0.17629 0.394502,-0.3945 0,-0.21822 -0.176294,-0.39451 -0.394502,-0.39451 h -3.156012 v -0.3945 h 0.591753 c 0.326697,0 0.591752,-0.26506 0.591752,-0.59175 V 151.78 c 0,-0.3267 -0.265055,-0.59176 -0.591752,-0.59176 z m -1.775256,5.52303 v -0.78901 h 1.578006 v 0.78901 z m 3.945014,-0.78901 h 1.578006 v 0.78901 h -1.578006 z"
             id="path2"
             style="stroke-width:0.0123281" /><path
             d="m 62.835033,154.29119 c 0.123781,0 0.223785,0.10003 0.223785,0.22378 0,0.12378 -0.100007,0.22379 -0.223785,0.22379 h -2.23785 v 0.44757 c 0,0.0902 -0.05455,0.17203 -0.138467,0.207 -0.08392,0.035 -0.179728,0.0154 -0.244066,-0.0482 l -0.671355,-0.67136 c -0.04196,-0.042 -0.06574,-0.0986 -0.06574,-0.15804 0,-0.0594 0.02378,-0.11615 0.06574,-0.15806 l 0.671355,-0.67135 c 0.06434,-0.0643 0.160146,-0.0832 0.244066,-0.0482 0.08391,0.035 0.138467,0.11614 0.138467,0.20699 v 0.44757 h 2.23785 z"
             id="path237"
             style="stroke-width:0.00699328"
             sodipodi:nodetypes="csscssccsccssccc" /><path
             d="m 67.698208,153.94975 h 2.237851 v -0.44757 c 0,-0.0902 0.05455,-0.17203 0.138468,-0.207 0.08392,-0.035 0.179727,-0.0154 0.244065,0.0482 l 0.671355,0.67136 c 0.04196,0.042 0.06574,0.0986 0.06574,0.15804 0,0.0594 -0.02378,0.11615 -0.06574,0.15806 l -0.671355,0.67135 c -0.06434,0.0643 -0.160146,0.0832 -0.244065,0.0482 -0.08392,-0.035 -0.138468,-0.11614 -0.138468,-0.20701 v -0.44617 h -2.237851 c -0.123781,0 -0.223785,-0.10003 -0.223785,-0.22378 0,-0.12378 0.100006,-0.22379 0.223785,-0.22379 z"
             style="stroke-width:0.00699328"
             id="path355" /></g></g></g></g></svg>
