<?xml version="1.0" encoding="UTF-8" standalone="no"?>
<!-- Created with Inkscape (http://www.inkscape.org/) -->

<svg
   width="512.00006"
   height="512.00006"
   viewBox="0 0 135.46668 135.46668"
   version="1.1"
   id="svg5"
   xml:space="preserve"
   sodipodi:docname="icon-light.svg"
   inkscape:version="1.3.2 (091e20ef0f, 2023-11-25)"
   inkscape:export-filename="icon-light.png"
   inkscape:export-xdpi="96"
   inkscape:export-ydpi="96"
   xmlns:inkscape="http://www.inkscape.org/namespaces/inkscape"
   xmlns:sodipodi="http://sodipodi.sourceforge.net/DTD/sodipodi-0.dtd"
   xmlns="http://www.w3.org/2000/svg"
   xmlns:svg="http://www.w3.org/2000/svg"><sodipodi:namedview
     id="namedview7"
     pagecolor="#ffffff"
     bordercolor="#999999"
     borderopacity="1"
     inkscape:showpageshadow="0"
     inkscape:pageopacity="0"
     inkscape:pagecheckerboard="0"
     inkscape:deskcolor="#d1d1d1"
     inkscape:document-units="mm"
     showgrid="true"
     inkscape:zoom="2"
     inkscape:cx="248"
     inkscape:cy="246.25"
     inkscape:window-width="2560"
     inkscape:window-height="1371"
     inkscape:window-x="0"
     inkscape:window-y="0"
     inkscape:window-maximized="1"
     inkscape:current-layer="layer1"
     inkscape:lockguides="true"><inkscape:grid
       type="xygrid"
       id="grid365"
       spacingx="3.96875"
       spacingy="3.96875"
       originx="-35.718751"
       originy="-79.374985"
       units="mm"
       visible="true" /></sodipodi:namedview><defs
     id="defs2"><clipPath
       clipPathUnits="userSpaceOnUse"
       id="clipPath1"><circle
         style="fill:#ffffff;fill-opacity:1;stroke-width:0.0626065;-inkscape-stroke:none;stop-color:#000000"
         id="ellipse1"
         cx="103.4521"
         cy="147.10834"
         r="67.733345" /></clipPath><filter
       style="color-interpolation-filters:sRGB;"
       inkscape:label="Drop Shadow"
       id="filter41"
       x="-0.21549388"
       y="-0.24199342"
       width="1.4094435"
       height="1.4839868"><feFlood
         result="flood"
         in="SourceGraphic"
         flood-opacity="0.498039"
         flood-color="rgb(0,0,0)"
         id="feFlood40" /><feGaussianBlur
         result="blur"
         in="SourceGraphic"
         stdDeviation="0.800000"
         id="feGaussianBlur40" /><feOffset
         result="offset"
         in="blur"
         dx="0.000000"
         dy="0.000000"
         id="feOffset40" /><feComposite
         result="comp1"
         operator="in"
         in="flood"
         in2="offset"
         id="feComposite40" /><feComposite
         result="comp2"
         operator="over"
         in="SourceGraphic"
         in2="comp1"
         id="feComposite41" /></filter><filter
       style="color-interpolation-filters:sRGB;"
       inkscape:label="Drop Shadow"
       id="filter43"
       x="-0.83260845"
       y="-0.31708879"
       width="2.6656034"
       height="1.6341835"><feFlood
         result="flood"
         in="SourceGraphic"
         flood-opacity="0.498039"
         flood-color="rgb(0,0,0)"
         id="feFlood41" /><feGaussianBlur
         result="blur"
         in="SourceGraphic"
         stdDeviation="0.800000"
         id="feGaussianBlur41" /><feOffset
         result="offset"
         in="blur"
         dx="0.000000"
         dy="0.000000"
         id="feOffset41" /><feComposite
         result="comp1"
         operator="in"
         in="flood"
         in2="offset"
         id="feComposite42" /><feComposite
         result="comp2"
         operator="over"
         in="SourceGraphic"
         in2="comp1"
         id="feComposite43" /></filter><filter
       style="color-interpolation-filters:sRGB;"
       inkscape:label="Drop Shadow"
       id="filter45"
       x="-0.51727928"
       y="-0.4621759"
       width="2.0340486"
       height="1.924189"><feFlood
         result="flood"
         in="SourceGraphic"
         flood-opacity="0.498039"
         flood-color="rgb(0,0,0)"
         id="feFlood43" /><feGaussianBlur
         result="blur"
         in="SourceGraphic"
         stdDeviation="0.800000"
         id="feGaussianBlur43" /><feOffset
         result="offset"
         in="blur"
         dx="0.000000"
         dy="0.000000"
         id="feOffset43" /><feComposite
         result="comp1"
         operator="in"
         in="flood"
         in2="offset"
         id="feComposite44" /><feComposite
         result="comp2"
         operator="over"
         in="SourceGraphic"
         in2="comp1"
         id="feComposite45" /></filter><filter
       style="color-interpolation-filters:sRGB;"
       inkscape:label="Drop Shadow"
       id="filter94"
       x="-0.43215843"
       y="-0.71827778"
       width="1.8643169"
       height="2.4365556"><feFlood
         result="flood"
         in="SourceGraphic"
         flood-opacity="1.000000"
         flood-color="rgb(0,0,0)"
         id="feFlood93" /><feGaussianBlur
         result="blur"
         in="SourceGraphic"
         stdDeviation="7.000000"
         id="feGaussianBlur93" /><feOffset
         result="offset"
         in="blur"
         dx="0.000000"
         dy="0.000000"
         id="feOffset93" /><feComposite
         result="comp1"
         operator="out"
         in="flood"
         in2="offset"
         id="feComposite93" /><feComposite
         result="comp2"
         operator="in"
         in="SourceGraphic"
         in2="comp1"
         id="feComposite94" /></filter><filter
       style="color-interpolation-filters:sRGB;"
       inkscape:label="Drop Shadow"
       id="filter125"
       x="-0.072660014"
       y="-0.072658929"
       width="1.14532"
       height="1.1453179"><feFlood
         result="flood"
         in="SourceGraphic"
         flood-opacity="1.000000"
         flood-color="rgb(255,255,255)"
         id="feFlood124" /><feGaussianBlur
         result="blur"
         in="SourceGraphic"
         stdDeviation="1.000000"
         id="feGaussianBlur124" /><feOffset
         result="offset"
         in="blur"
         dx="0.000000"
         dy="0.000000"
         id="feOffset124" /><feComposite
         result="comp1"
         operator="out"
         in="flood"
         in2="offset"
         id="feComposite124" /><feComposite
         result="comp2"
         operator="atop"
         in="comp1"
         in2="SourceGraphic"
         id="feComposite125" /></filter><filter
       style="color-interpolation-filters:sRGB;"
       inkscape:label="Drop Shadow"
       id="filter227"
       x="-0.013664548"
       y="-0.013694195"
       width="1.0273291"
       height="1.0273884"><feFlood
         result="flood"
         in="SourceGraphic"
         flood-opacity="0.674510"
         flood-color="rgb(0,0,0)"
         id="feFlood226" /><feGaussianBlur
         result="blur"
         in="SourceGraphic"
         stdDeviation="0.500000"
         id="feGaussianBlur226" /><feOffset
         result="offset"
         in="blur"
         dx="0.000000"
         dy="0.000000"
         id="feOffset226" /><feComposite
         result="comp1"
         operator="in"
         in="offset"
         in2="flood"
         id="feComposite226" /><feComposite
         result="comp2"
         operator="over"
         in="SourceGraphic"
         in2="comp1"
         id="feComposite227" /></filter></defs><g
     inkscape:label="Layer 1"
     inkscape:groupmode="layer"
     id="layer1"
     transform="translate(-35.718758,-79.375)"><circle
       style="opacity:1;fill:#ffffff;fill-opacity:1;stroke:#ffffff;stroke-width:0;stroke-dasharray:none;stroke-opacity:1"
       id="path118"
       cx="103.4521"
       cy="147.10835"
       r="67.733337"
       sodipodi:insensitive="true" /><path
       id="path22"
       style="fill:#efbf9f;fill-opacity:1;stroke:none;stroke-width:0;stroke-opacity:1;filter:url(#filter125)"
       d="m 120.42225,129.52195 -1.66028,2.00863 -20.338375,10.44573 -1.943002,9.02623 4.333517,7.21694 7.21644,4.33351 9.02623,-1.94349 10.44623,-20.33837 2.00813,-1.65979 -0.86246,-8.22643 v -5e-4 z"
       transform="matrix(1.0597149,0.28394975,-0.28394975,1.0597149,36.544731,-45.955307)" /><g
       id="g164"
       transform="matrix(1.0098452,0.2705872,-0.2705872,1.0098452,34.626177,-27.64601)"><g
         id="g23"
         transform="matrix(1.0493835,0,0,1.0493835,-2.7601151,-17.391226)"><path
           id="path12"
           style="stroke:#ffffff;stroke-width:0"
           d="M 83.268989 139.27601 C 70.404772 142.58582 60.898961 154.26326 60.898963 168.16057 C 60.898961 184.63145 74.251405 197.98335 90.722293 197.98335 C 106.72161 197.94155 119.83738 185.28281 120.44591 169.295 L 120.48466 165.69605 L 118.79921 168.13237 C 114.43251 164.98629 110.04209 161.25728 105.90342 157.16911 C 100.03075 151.33666 94.931956 145.03393 91.206775 139.03724 L 93.287737 138.33726 L 90.765408 138.33822 L 90.7222 138.33711 C 88.148624 138.33711 85.651252 138.66308 83.268989 139.27601 z " /><g
           style="fill:#ffffff;stroke:#ffffff;stroke-width:2;stroke-linecap:round;stroke-linejoin:round;stroke-opacity:1"
           id="g17"
           transform="matrix(-0.84849583,0.84849583,-0.84849583,-0.84849583,106.66664,172.96012)"><rect
             width="20"
             height="8"
             x="2"
             y="2"
             rx="2"
             ry="2"
             id="rect1"
             style="fill:#ffffff;stroke:#ffffff;stroke-opacity:1" /><rect
             width="20"
             height="8"
             x="2"
             y="14"
             rx="2"
             ry="2"
             id="rect2"
             style="fill:#ffffff;fill-opacity:1;stroke:#ffffff;stroke-opacity:1" /><line
             x1="6"
             x2="6.0100002"
             y1="6"
             y2="6"
             id="line2"
             style="fill:#000000;stroke:#000000;stroke-opacity:1" /><line
             x1="6"
             x2="6.0100002"
             y1="18"
             y2="18"
             id="line3"
             style="fill:#000000;fill-opacity:1;stroke:#000000;stroke-opacity:1" /></g><g
           style="fill:#ffffff;stroke:currentColor;stroke-width:2;stroke-linecap:round;stroke-linejoin:round"
           id="g13"
           transform="matrix(1.4507116,0,0,1.4507116,87.117402,136.8866)"><path
             d="m 22,16.92 v 3 a 2,2 0 0 1 -2.18,2 19.79,19.79 0 0 1 -8.63,-3.07 19.5,19.5 0 0 1 -6,-6 A 19.79,19.79 0 0 1 2.12,4.18 2,2 0 0 1 4.11,2 h 3 a 2,2 0 0 1 2,1.72 12.84,12.84 0 0 0 0.7,2.81 2,2 0 0 1 -0.45,2.11 L 8.09,9.91 a 16,16 0 0 0 6,6 l 1.27,-1.27 a 2,2 0 0 1 2.11,-0.45 12.84,12.84 0 0 0 2.81,0.7 2,2 0 0 1 1.72,2.03 z"
             id="path1"
             style="fill:#ffffff" /></g></g><g
         id="g22"
         transform="matrix(1.0493835,0,0,1.0493835,-2.7601149,-17.391225)"><path
           id="path9"
           style="stroke:#ffffff;stroke-width:0"
           d="M 126.60163 115.08041 A 13.917493 14.023129 90 0 0 116.7763 126.60677 L 116.74902 128.93819 L 117.92579 127.71732 L 118.01046 127.58199 A 42.245385 15.132192 44.656015 0 1 127.40377 135.86736 A 42.245385 15.132192 44.656015 0 1 131.66216 140.32352 L 130.98191 140.5092 L 129.6956 141.97643 L 133.1408 141.9764 A 13.917493 14.023129 90 0 0 144.58476 128.39589 A 13.917493 14.023129 90 0 0 130.56149 114.47873 A 13.917493 14.023129 90 0 0 126.60163 115.08041 z " /><g
           style="fill:#ffffff;stroke:currentColor;stroke-width:2;stroke-linecap:round;stroke-linejoin:round"
           id="g15"
           transform="matrix(-1.4507116,0,0,-1.4507116,149.85829,159.33278)"><path
             d="m 22.341362,19.621008 v 1.442901 a 0.96193368,0.96193368 0 0 1 -1.048507,0.961934 9.5183338,9.5183338 0 0 1 -4.150744,-1.476569 9.3788534,9.3788534 0 0 1 -2.885801,-2.885801 9.5183338,9.5183338 0 0 1 -1.476568,-4.169982 0.96193368,0.96193368 0 0 1 0.957124,-1.048508 h 1.4429 a 0.96193368,0.96193368 0 0 1 0.961934,0.827263 6.1756142,6.1756142 0 0 0 0.336677,1.351517 0.96193368,0.96193368 0 0 1 -0.216435,1.01484 l -0.610828,0.610828 a 7.6954694,7.6954694 0 0 0 2.885801,2.885801 l 0.610827,-0.610828 a 0.96193368,0.96193368 0 0 1 1.014841,-0.216435 6.1756142,6.1756142 0 0 0 1.351516,0.336677 0.96193368,0.96193368 0 0 1 0.827263,0.976362 z"
             id="path15"
             style="fill:#ffffff;stroke-width:0.961934" /></g><g
           style="fill:#ffffff;stroke:#ffffff;stroke-width:2;stroke-linecap:round;stroke-linejoin:round;stroke-opacity:1"
           id="g20"
           transform="matrix(0.36363112,-0.36363112,0.36363112,0.36363112,124.23832,126.06777)"><rect
             width="20"
             height="8"
             x="2"
             y="2"
             rx="2"
             ry="2"
             id="rect18"
             style="fill:#ffffff;stroke:#ffffff;stroke-opacity:1" /><rect
             width="20"
             height="8"
             x="2"
             y="14"
             rx="2"
             ry="2"
             id="rect19"
             style="fill:#ffffff;fill-opacity:1;stroke:#ffffff;stroke-opacity:1" /><line
             x1="6"
             x2="6.0100002"
             y1="6"
             y2="6"
             id="line19"
             style="fill:#000000;stroke:#000000;stroke-opacity:1;fill-opacity:1" /><line
             x1="6"
             x2="6.0100002"
             y1="18"
             y2="18"
             id="line20"
             style="fill:#000000;stroke:#000000;stroke-opacity:1" /></g></g></g></g></svg>
