<?xml version="1.0" encoding="UTF-8" standalone="no"?>
<!-- Created with Inkscape (http://www.inkscape.org/) -->

<svg
   width="1563.9821"
   height="512.00006"
   viewBox="0 0 413.80335 135.46668"
   version="1.1"
   id="svg5"
   xml:space="preserve"
   sodipodi:docname="logo-dark.svg"
   inkscape:version="1.3.2 (091e20ef0f, 2023-11-25)"
   inkscape:export-filename="logo-dark.png"
   inkscape:export-xdpi="96"
   inkscape:export-ydpi="96"
   xmlns:inkscape="http://www.inkscape.org/namespaces/inkscape"
   xmlns:sodipodi="http://sodipodi.sourceforge.net/DTD/sodipodi-0.dtd"
   xmlns="http://www.w3.org/2000/svg"
   xmlns:svg="http://www.w3.org/2000/svg"><sodipodi:namedview
     id="namedview7"
     pagecolor="#ffffff"
     bordercolor="#999999"
     borderopacity="1"
     inkscape:showpageshadow="0"
     inkscape:pageopacity="0"
     inkscape:pagecheckerboard="0"
     inkscape:deskcolor="#d1d1d1"
     inkscape:document-units="mm"
     showgrid="true"
     inkscape:zoom="0.47406156"
     inkscape:cx="170.86389"
     inkscape:cy="-262.62412"
     inkscape:window-width="2560"
     inkscape:window-height="1371"
     inkscape:window-x="0"
     inkscape:window-y="0"
     inkscape:window-maximized="1"
     inkscape:current-layer="layer1"
     inkscape:lockguides="true"
     inkscape:export-bgcolor="#ffffff00"><inkscape:grid
       type="xygrid"
       id="grid365"
       spacingx="3.96875"
       spacingy="3.96875"
       originx="-35.721993"
       originy="-79.37323"
       units="mm"
       visible="true" /></sodipodi:namedview><defs
     id="defs2"><filter
       style="color-interpolation-filters:sRGB"
       inkscape:label="Greyscale"
       id="filter335"
       x="0"
       y="0"
       width="1"
       height="1"><feColorMatrix
         values="0.21 0.72 0.072 0 0 0.21 0.72 0.072 0 0 0.21 0.72 0.072 0 0 0 0 0 1 0 "
         id="feColorMatrix333" /></filter><filter
       style="color-interpolation-filters:sRGB"
       inkscape:label="Greyscale"
       id="filter335-3"
       x="0"
       y="0"
       width="1"
       height="1"><feColorMatrix
         values="0.21 0.72 0.072 0 0 0.21 0.72 0.072 0 0 0.21 0.72 0.072 0 0 0 0 0 1 0 "
         id="feColorMatrix333-6" /></filter><filter
       style="color-interpolation-filters:sRGB"
       inkscape:label="Greyscale"
       id="filter335-35"
       x="0"
       y="0"
       width="1"
       height="1"><feColorMatrix
         values="0.21 0.72 0.072 0 0 0.21 0.72 0.072 0 0 0.21 0.72 0.072 0 0 0 0 0 1 0 "
         id="feColorMatrix333-62" /></filter><filter
       style="color-interpolation-filters:sRGB"
       inkscape:label="Drop Shadow"
       id="filter756"
       x="-0.024397193"
       y="-0.024397193"
       width="1.0487944"
       height="1.0487944"><feFlood
         flood-opacity="0.729412"
         flood-color="rgb(255,255,255)"
         result="flood"
         id="feFlood746" /><feComposite
         in="SourceGraphic"
         in2="flood"
         operator="in"
         result="composite1"
         id="feComposite748" /><feGaussianBlur
         in="composite1"
         stdDeviation="1"
         result="blur"
         id="feGaussianBlur750" /><feOffset
         dx="0"
         dy="0"
         result="offset"
         id="feOffset752" /><feComposite
         in="SourceGraphic"
         in2="offset"
         operator="over"
         result="composite2"
         id="feComposite754" /></filter><filter
       style="color-interpolation-filters:sRGB"
       inkscape:label="Greyscale"
       id="filter335-356"
       x="0"
       y="0"
       width="1"
       height="1"><feColorMatrix
         values="0.21 0.72 0.072 0 0 0.21 0.72 0.072 0 0 0.21 0.72 0.072 0 0 0 0 0 1 0 "
         id="feColorMatrix333-2" /></filter><filter
       style="color-interpolation-filters:sRGB"
       inkscape:label="Drop Shadow"
       id="filter756-9"
       x="-0.024397193"
       y="-0.024397193"
       width="1.0487944"
       height="1.0487944"><feFlood
         flood-opacity="0.729412"
         flood-color="rgb(255,255,255)"
         result="flood"
         id="feFlood746-1" /><feComposite
         in="SourceGraphic"
         in2="flood"
         operator="in"
         result="composite1"
         id="feComposite748-2" /><feGaussianBlur
         in="composite1"
         stdDeviation="1"
         result="blur"
         id="feGaussianBlur750-7" /><feOffset
         dx="0"
         dy="0"
         result="offset"
         id="feOffset752-0" /><feComposite
         in="SourceGraphic"
         in2="offset"
         operator="over"
         result="composite2"
         id="feComposite754-9" /></filter><filter
       style="color-interpolation-filters:sRGB"
       inkscape:label="Greyscale"
       id="filter335-3562"
       x="0"
       y="0"
       width="1"
       height="1"><feColorMatrix
         values="0.21 0.72 0.072 0 0 0.21 0.72 0.072 0 0 0.21 0.72 0.072 0 0 0 0 0 1 0 "
         id="feColorMatrix333-9" /></filter><filter
       style="color-interpolation-filters:sRGB"
       inkscape:label="Drop Shadow"
       id="filter756-1"
       x="-0.024397193"
       y="-0.024397193"
       width="1.0487944"
       height="1.0487944"><feFlood
         flood-opacity="0.729412"
         flood-color="rgb(255,255,255)"
         result="flood"
         id="feFlood746-2" /><feComposite
         in="SourceGraphic"
         in2="flood"
         operator="in"
         result="composite1"
         id="feComposite748-7" /><feGaussianBlur
         in="composite1"
         stdDeviation="1"
         result="blur"
         id="feGaussianBlur750-0" /><feOffset
         dx="0"
         dy="0"
         result="offset"
         id="feOffset752-9" /><feComposite
         in="SourceGraphic"
         in2="offset"
         operator="over"
         result="composite2"
         id="feComposite754-3" /></filter><filter
       style="color-interpolation-filters:sRGB"
       inkscape:label="Greyscale"
       id="filter335-5"
       x="0"
       y="0"
       width="1"
       height="1"><feColorMatrix
         values="0.21 0.72 0.072 0 0 0.21 0.72 0.072 0 0 0.21 0.72 0.072 0 0 0 0 0 1 0 "
         id="feColorMatrix333-629" /></filter><filter
       style="color-interpolation-filters:sRGB"
       inkscape:label="Drop Shadow"
       id="filter756-12"
       x="-0.024397193"
       y="-0.024397193"
       width="1.0487944"
       height="1.0487944"><feFlood
         flood-opacity="0.729412"
         flood-color="rgb(255,255,255)"
         result="flood"
         id="feFlood746-7" /><feComposite
         in="SourceGraphic"
         in2="flood"
         operator="in"
         result="composite1"
         id="feComposite748-0" /><feGaussianBlur
         in="composite1"
         stdDeviation="1"
         result="blur"
         id="feGaussianBlur750-9" /><feOffset
         dx="0"
         dy="0"
         result="offset"
         id="feOffset752-3" /><feComposite
         in="SourceGraphic"
         in2="offset"
         operator="over"
         result="composite2"
         id="feComposite754-6" /></filter><clipPath
       clipPathUnits="userSpaceOnUse"
       id="clipPath1"><circle
         style="fill:#ffffff;fill-opacity:1;stroke-width:0.0626065;-inkscape-stroke:none;stop-color:#000000"
         id="ellipse1"
         cx="103.4521"
         cy="147.10834"
         r="67.733345" /></clipPath><filter
       style="color-interpolation-filters:sRGB"
       inkscape:label="Greyscale"
       id="filter335-35629"
       x="0"
       y="0"
       width="1"
       height="1"><feColorMatrix
         values="0.21 0.72 0.072 0 0 0.21 0.72 0.072 0 0 0.21 0.72 0.072 0 0 0 0 0 1 0 "
         id="feColorMatrix333-1" /></filter><filter
       style="color-interpolation-filters:sRGB"
       inkscape:label="Drop Shadow"
       id="filter756-2"
       x="-0.024397193"
       y="-0.024397193"
       width="1.0487944"
       height="1.0487944"><feFlood
         flood-opacity="0.729412"
         flood-color="rgb(255,255,255)"
         result="flood"
         id="feFlood746-70" /><feComposite
         in="SourceGraphic"
         in2="flood"
         operator="in"
         result="composite1"
         id="feComposite748-9" /><feGaussianBlur
         in="composite1"
         stdDeviation="1"
         result="blur"
         id="feGaussianBlur750-3" /><feOffset
         dx="0"
         dy="0"
         result="offset"
         id="feOffset752-6" /><feComposite
         in="SourceGraphic"
         in2="offset"
         operator="over"
         result="composite2"
         id="feComposite754-0" /></filter><clipPath
       clipPathUnits="userSpaceOnUse"
       id="clipPath1-6"><circle
         style="fill:#ffffff;fill-opacity:1;stroke-width:0.0626065;-inkscape-stroke:none;stop-color:#000000"
         id="ellipse1-2"
         cx="103.4521"
         cy="147.10834"
         r="67.733345" /></clipPath><filter
       style="color-interpolation-filters:sRGB"
       inkscape:label="Greyscale"
       id="filter335-356291"
       x="0"
       y="0"
       width="1"
       height="1"><feColorMatrix
         values="0.21 0.72 0.072 0 0 0.21 0.72 0.072 0 0 0.21 0.72 0.072 0 0 0 0 0 1 0 "
         id="feColorMatrix333-27" /></filter><filter
       style="color-interpolation-filters:sRGB"
       inkscape:label="Drop Shadow"
       id="filter756-0"
       x="-0.024397193"
       y="-0.024397193"
       width="1.0487944"
       height="1.0487944"><feFlood
         flood-opacity="0.729412"
         flood-color="rgb(255,255,255)"
         result="flood"
         id="feFlood746-9" /><feComposite
         in="SourceGraphic"
         in2="flood"
         operator="in"
         result="composite1"
         id="feComposite748-3" /><feGaussianBlur
         in="composite1"
         stdDeviation="1"
         result="blur"
         id="feGaussianBlur750-6" /><feOffset
         dx="0"
         dy="0"
         result="offset"
         id="feOffset752-06" /><feComposite
         in="SourceGraphic"
         in2="offset"
         operator="over"
         result="composite2"
         id="feComposite754-2" /></filter><clipPath
       clipPathUnits="userSpaceOnUse"
       id="clipPath1-61"><circle
         style="fill:#ffffff;fill-opacity:1;stroke-width:0.0626065;-inkscape-stroke:none;stop-color:#000000"
         id="ellipse1-8"
         cx="103.4521"
         cy="147.10834"
         r="67.733345" /></clipPath><clipPath
       clipPathUnits="userSpaceOnUse"
       id="clipPath1-9"><circle
         style="fill:#ffffff;fill-opacity:1;stroke-width:0.0626065;-inkscape-stroke:none;stop-color:#000000"
         id="ellipse1-1"
         cx="103.4521"
         cy="147.10834"
         r="67.733345" /></clipPath><filter
       style="color-interpolation-filters:sRGB"
       inkscape:label="Drop Shadow"
       id="filter41"
       x="-0.21549388"
       y="-0.24199342"
       width="1.4094435"
       height="1.4839868"><feFlood
         result="flood"
         in="SourceGraphic"
         flood-opacity="0.498039"
         flood-color="rgb(0,0,0)"
         id="feFlood40" /><feGaussianBlur
         result="blur"
         in="SourceGraphic"
         stdDeviation="0.800000"
         id="feGaussianBlur40" /><feOffset
         result="offset"
         in="blur"
         dx="0.000000"
         dy="0.000000"
         id="feOffset40" /><feComposite
         result="comp1"
         operator="in"
         in="flood"
         in2="offset"
         id="feComposite40" /><feComposite
         result="comp2"
         operator="over"
         in="SourceGraphic"
         in2="comp1"
         id="feComposite41" /></filter><filter
       style="color-interpolation-filters:sRGB"
       inkscape:label="Drop Shadow"
       id="filter43"
       x="-0.83260845"
       y="-0.31708879"
       width="2.6656034"
       height="1.6341835"><feFlood
         result="flood"
         in="SourceGraphic"
         flood-opacity="0.498039"
         flood-color="rgb(0,0,0)"
         id="feFlood41" /><feGaussianBlur
         result="blur"
         in="SourceGraphic"
         stdDeviation="0.800000"
         id="feGaussianBlur41" /><feOffset
         result="offset"
         in="blur"
         dx="0.000000"
         dy="0.000000"
         id="feOffset41" /><feComposite
         result="comp1"
         operator="in"
         in="flood"
         in2="offset"
         id="feComposite42" /><feComposite
         result="comp2"
         operator="over"
         in="SourceGraphic"
         in2="comp1"
         id="feComposite43" /></filter><filter
       style="color-interpolation-filters:sRGB"
       inkscape:label="Drop Shadow"
       id="filter45"
       x="-0.51727927"
       y="-0.46217591"
       width="2.0340486"
       height="1.924189"><feFlood
         result="flood"
         in="SourceGraphic"
         flood-opacity="0.498039"
         flood-color="rgb(0,0,0)"
         id="feFlood43" /><feGaussianBlur
         result="blur"
         in="SourceGraphic"
         stdDeviation="0.800000"
         id="feGaussianBlur43" /><feOffset
         result="offset"
         in="blur"
         dx="0.000000"
         dy="0.000000"
         id="feOffset43" /><feComposite
         result="comp1"
         operator="in"
         in="flood"
         in2="offset"
         id="feComposite44" /><feComposite
         result="comp2"
         operator="over"
         in="SourceGraphic"
         in2="comp1"
         id="feComposite45" /></filter><filter
       style="color-interpolation-filters:sRGB"
       inkscape:label="Drop Shadow"
       id="filter94"
       x="-0.43215843"
       y="-0.71827778"
       width="1.8643169"
       height="2.4365556"><feFlood
         result="flood"
         in="SourceGraphic"
         flood-opacity="1.000000"
         flood-color="rgb(0,0,0)"
         id="feFlood93" /><feGaussianBlur
         result="blur"
         in="SourceGraphic"
         stdDeviation="7.000000"
         id="feGaussianBlur93" /><feOffset
         result="offset"
         in="blur"
         dx="0.000000"
         dy="0.000000"
         id="feOffset93" /><feComposite
         result="comp1"
         operator="out"
         in="flood"
         in2="offset"
         id="feComposite93" /><feComposite
         result="comp2"
         operator="in"
         in="SourceGraphic"
         in2="comp1"
         id="feComposite94" /></filter><filter
       style="color-interpolation-filters:sRGB;"
       inkscape:label="Invert"
       id="filter21"
       x="0"
       y="0"
       width="1"
       height="1"><feColorMatrix
         values="-1 0 0 0 1 0 -1 0 0 1 0 0 -1 0 1 0.21 0.72 0.07 1 0 "
         result="color2"
         id="feColorMatrix21" /></filter><filter
       style="color-interpolation-filters:sRGB;"
       inkscape:label="Invert"
       id="filter22"
       x="0"
       y="0"
       width="1"
       height="1"><feColorMatrix
         values="-1 0 0 0 1 0 -1 0 0 1 0 0 -1 0 1 0.21 0.72 0.07 1 0 "
         result="color2"
         id="feColorMatrix22" /></filter><filter
       style="color-interpolation-filters:sRGB;"
       inkscape:label="Invert"
       id="filter23"
       x="0"
       y="0"
       width="1"
       height="1"><feColorMatrix
         values="-1 0 0 0 1 0 -1 0 0 1 0 0 -1 0 1 0.21 0.72 0.07 1 0 "
         result="color2"
         id="feColorMatrix23" /></filter></defs><g
     inkscape:label="Layer 1"
     inkscape:groupmode="layer"
     id="layer1"
     transform="translate(-35.718765,-79.374992)"><text
       xml:space="preserve"
       style="font-size:78.5714px;font-family:Overpass;-inkscape-font-specification:Overpass;fill:#000000;stroke-width:0.026536;-inkscape-stroke:none;stop-color:#000000;filter:url(#filter23)"
       x="193.94191"
       y="171.77029"
       id="text452"><tspan
         sodipodi:role="line"
         id="tspan450"
         style="font-style:normal;font-variant:normal;font-weight:normal;font-stretch:normal;font-family:Inter;-inkscape-font-specification:Inter;fill:#000000;stroke-width:0.026536"
         x="193.94191"
         y="171.77029">panrpc</tspan></text><ellipse
       style="fill:#ffffff;fill-opacity:1;stroke-width:0.0626064;-inkscape-stroke:none;stop-color:#000000;filter:url(#filter22)"
       id="path15885"
       cx="103.4521"
       cy="147.10834"
       rx="67.733337"
       ry="67.733345" /><g
       inkscape:label="Layer 1"
       id="layer1-2"
       transform="translate(0,-2.2888184e-5)"
       style="filter:url(#filter21)"><circle
         style="opacity:1;fill:#ffffff;fill-opacity:1;stroke:#ffffff;stroke-width:0;stroke-dasharray:none;stroke-opacity:1"
         id="path118"
         cx="103.4521"
         cy="147.10835"
         r="67.733337"
         sodipodi:insensitive="true" /><g
         id="g164"
         transform="matrix(0.99806925,0,0,0.99806925,-1.4005251,0.83620085)"><path
           d="m 109.10874,141.34264 -4.51279,-0.57558 c -1.11865,-0.14268 -1.17825,0.58484 -1.17826,1.71256 v 4.63516"
           id="path1"
           style="fill:none;stroke:#000000;stroke-width:2.04192;stroke-linecap:round;stroke-linejoin:round"
           transform="matrix(2.6416588,-1.5251624,1.5251624,2.6416588,-387.15304,-52.655707)"
           sodipodi:nodetypes="cscc" /><path
           d="m 95.250009,128.53332 v 1.69479 c 0,1.69158 1.371297,3.06288 3.062879,3.06288 v 0 c 1.127722,0 2.041922,0.9142 2.041922,2.04192 v 0 c 0,1.12305 2.55038,-0.82375 1.43373,-0.70388 l -1.56225,0.16769 c -1.121282,0.12037 -4.564735,-2.22224 4.21236,0.53619 v 0 c 0,-1.12306 0.32054,-1.54372 1.43391,-1.6909 l 3.69748,-0.48877"
           id="path2"
           style="fill:none;stroke:#000000;stroke-width:2.04192;stroke-linecap:round;stroke-linejoin:round"
           transform="matrix(2.6416588,-1.5251624,1.5251624,2.6416588,-387.15304,-52.655707)"
           sodipodi:nodetypes="cssssssssssc" /><path
           d="m 99.333848,147.53338 -0.539151,-3.60185 c -0.438155,-2.17059 -1.378533,-3.96293 -3.544688,-5.53574 -0.912548,-0.66259 -1.809621,-1.29341 -2.908474,-1.54695 l -2.145277,-0.49497"
           id="path3"
           style="fill:none;stroke:#000000;stroke-width:2.04192;stroke-linecap:round;stroke-linejoin:round"
           transform="matrix(2.6416588,-1.5251624,1.5251624,2.6416588,-387.15304,-52.655707)"
           sodipodi:nodetypes="ccssc" /><circle
           cx="-2.8417854"
           cy="179.86017"
           r="31.142586"
           id="circle3"
           style="fill:none;stroke:#000000;stroke-width:6.22852;stroke-linecap:round;stroke-linejoin:round"
           transform="rotate(-30)" /><path
           id="path45"
           style="fill:#ffbf8d;fill-opacity:0.753635;stroke:#ffffff;stroke-width:0;stroke-dasharray:none;stroke-opacity:1;filter:url(#filter94)"
           d="m 126.37731,135.14911 -31.500923,4.17456 -2.782259,7.52008 2.782259,7.52008 31.500923,4.17456 4.59145,-11.69464 z"
           transform="rotate(-30,103.27738,140.97352)" /><path
           id="path1-6"
           style="fill:#000000;stroke:#000000;stroke-width:3.90543;stroke-linecap:round;stroke-linejoin:round"
           d="m 126.69783,114.20755 c -3.56519,2.17906 -6.41966,5.68957 -7.68614,10.41601 12.16245,7.02197 26.77665,13.23975 12.42715,21.52444 15.12467,4.05261 27.59598,-12.20382 19.76784,-25.76257 -5.38187,-9.32166 -16.66544,-10.97176 -24.50885,-6.17788 z m 4.80926,-0.0437 a 5.1611327,5.1611327 0 0 1 7.05043,1.88877 5.1611327,5.1611327 0 0 1 -1.88949,7.05023 5.1611327,5.1611327 0 0 1 -7.04997,-1.88903 5.1611327,5.1611327 0 0 1 1.88903,-7.04997 z m 5.06471,10.59133 a 3.0599368,3.0599368 0 0 1 4.18043,1.12014 3.0599368,3.0599368 0 0 1 -1.12041,4.17997 3.0599368,3.0599368 0 0 1 -4.1797,-1.11995 3.0599368,3.0599368 0 0 1 1.11968,-4.18016 z m 8.08044,-1.2664 a 3.8350408,3.8350408 0 0 1 5.23928,1.40389 3.8350408,3.8350408 0 0 1 -1.4041,5.23883 3.8350408,3.8350408 0 0 1 -5.23858,-1.40367 3.8350408,3.8350408 0 0 1 1.4034,-5.23905 z m -2.4617,9.9751 a 3.9176507,3.9176507 0 0 1 5.35197,1.4337 3.9176507,3.9176507 0 0 1 -1.43412,5.35221 3.9176507,3.9176507 0 0 1 -5.35179,-1.43436 3.9176507,3.9176507 0 0 1 1.43394,-5.35155 z" /><path
           d="m 111.03408,159.57903 0.54959,-0.5496 a 0.51816697,0.51816697 0 0 1 0.76578,0.033 5.1272622,5.1272622 0 0 1 1.01859,2.14344 5.052128,5.052128 0 0 1 0,2.1984 5.1272622,5.1272622 0 0 1 -1.02592,2.15076 0.51816697,0.51816697 0 0 1 -0.76394,0.0348 l -0.5496,-0.5496 a 0.51816697,0.51816697 0 0 1 -0.0513,-0.6815 3.326632,3.326632 0 0 0 0.38656,-0.64303 0.51816697,0.51816697 0 0 1 0.46899,-0.30411 h 0.46532 a 4.1453358,4.1453358 0 0 0 0,-2.1984 h -0.46532 a 0.51816697,0.51816697 0 0 1 -0.46899,-0.30411 3.326632,3.326632 0 0 0 -0.38656,-0.64303 0.51816697,0.51816697 0 0 1 0.0568,-0.687 z"
           id="path18"
           style="fill:#000000;fill-opacity:1;stroke:#ffffff;stroke-width:0.518167;stroke-linecap:round;stroke-linejoin:round;stroke-opacity:1;filter:url(#filter43)"
           transform="matrix(3.835822,-2.2146128,2.2146128,3.835822,-662.46557,-239.95716)" /><g
           id="g20"
           transform="matrix(2.4933139,-1.4395154,1.4395154,2.4933139,-336.43107,-135.73233)"
           style="filter:url(#filter41)"><g
             id="g17"
             transform="translate(2.1570183,0.13688736)" /><g
             id="g21"
             transform="translate(-3.4689756,-0.93138798)"><rect
               width="10.00034"
               height="4.0001359"
               x="74.615242"
               y="157.66042"
               rx="1.000034"
               ry="1.000034"
               id="rect1"
               style="fill:#000000;stroke:#ffffff;stroke-width:1.00003;stroke-linecap:round;stroke-linejoin:round;stroke-opacity:1" /><rect
               width="10.00034"
               height="4.0001359"
               x="74.615242"
               y="163.66061"
               rx="1.000034"
               ry="1.000034"
               id="rect2"
               style="fill:#000000;stroke:#ffffff;stroke-width:1.00003;stroke-linecap:round;stroke-linejoin:round;stroke-opacity:1" /><line
               x1="76.615311"
               x2="76.620316"
               y1="159.66048"
               y2="159.66048"
               id="line2"
               style="fill:#ffffff;stroke:#ffffff;stroke-width:1.00003;stroke-linecap:round;stroke-linejoin:round;stroke-opacity:1" /><line
               x1="76.615311"
               x2="76.620316"
               y1="165.66068"
               y2="165.66068"
               id="line2-5"
               style="fill:#ffffff;stroke:#ffffff;stroke-width:1.00003;stroke-linecap:round;stroke-linejoin:round;stroke-opacity:1" /><g
               style="fill:#000000;fill-opacity:1;stroke:#ffffff;stroke-width:2;stroke-linecap:round;stroke-linejoin:round;stroke-opacity:1"
               id="g3"
               transform="matrix(0.18319969,0.18319969,-0.18319969,0.18319969,84.753706,158.26015)"><path
                 d="m 22,16.92 v 3 a 2,2 0 0 1 -2.18,2 19.79,19.79 0 0 1 -8.63,-3.07 19.5,19.5 0 0 1 -6,-6 A 19.79,19.79 0 0 1 2.12,4.18 2,2 0 0 1 4.11,2 h 3 a 2,2 0 0 1 2,1.72 12.84,12.84 0 0 0 0.7,2.81 2,2 0 0 1 -0.45,2.11 L 8.09,9.91 a 16,16 0 0 0 6,6 l 1.27,-1.27 a 2,2 0 0 1 2.11,-0.45 12.84,12.84 0 0 0 2.81,0.7 2,2 0 0 1 1.72,2.03 z"
                 id="path1-3"
                 style="fill:#000000;fill-opacity:1;stroke:#ffffff;stroke-opacity:1" /></g></g></g></g></g></g></svg>
